<?xml version="1.0" standalone="no"?>
<!DOCTYPE svg PUBLIC "-//W3C//DTD SVG 20010904//EN"
 "http://www.w3.org/TR/2001/REC-SVG-20010904/DTD/svg10.dtd">
<svg version="1.0" xmlns="http://www.w3.org/2000/svg"
 width="399.000000pt" height="399.000000pt" viewBox="0 0 399.000000 399.000000"
 preserveAspectRatio="xMidYMid meet">
<metadata>
Created by potrace 1.14, written by Peter Selinger 2001-2017
</metadata>
<g transform="translate(0.000000,399.000000) scale(0.100000,-0.100000)"
fill="#000000" stroke="none">
<path d="M1844 3478 c-45 -29 -125 -79 -177 -111 -102 -61 -139 -101 -171
-187 -16 -44 -46 -219 -46 -272 0 -20 -8 -32 -27 -42 -100 -52 -217 -214 -173
-241 12 -8 83 11 134 36 50 24 56 24 56 -1 0 -14 6 -20 18 -18 15 3 17 -6 18
-62 0 -36 5 -84 11 -108 6 -23 9 -51 6 -62 -4 -16 0 -20 18 -20 18 0 20 -3 10
-9 -11 -7 -8 -18 14 -60 16 -28 25 -54 22 -57 -3 -4 -2 -15 3 -25 7 -11 7 -20
0 -24 -5 -3 -7 -12 -4 -19 3 -7 -6 -27 -20 -44 -21 -23 -26 -41 -26 -81 0 -39
-4 -51 -15 -51 -13 0 -15 -7 -10 -34 6 -29 3 -36 -17 -46 -44 -24 -203 -144
-303 -230 -118 -103 -179 -146 -260 -189 -141 -74 -192 -114 -238 -181 -16
-25 -41 -56 -54 -69 -30 -28 -26 -54 17 -121 53 -83 150 -267 150 -286 0 -25
-69 -242 -90 -284 -10 -19 -32 -84 -50 -145 -76 -259 -88 -303 -103 -367 l-15
-68 142 0 143 0 33 108 c19 59 55 149 82 200 43 82 48 88 48 59 0 -19 -8 -58
-18 -88 -11 -30 -22 -80 -26 -112 -3 -31 -15 -81 -26 -110 -11 -28 -20 -53
-20 -54 0 -2 700 -3 1555 -3 l1555 0 0 405 0 406 -26 52 c-75 148 -260 359
-360 410 -27 14 -60 35 -74 47 -35 30 -126 84 -204 121 -36 17 -66 35 -66 39
0 5 19 23 43 41 57 44 117 101 117 112 0 14 -140 160 -200 208 -30 25 -85 65
-121 91 -36 26 -120 99 -185 163 -117 114 -172 159 -226 182 -25 11 -27 10
-43 -30 -20 -50 -52 -87 -76 -87 -22 0 -49 37 -49 67 0 13 -4 23 -10 23 -5 0
-10 -15 -10 -32 0 -25 -3 -29 -10 -18 -8 13 -10 13 -10 -1 0 -9 -7 -20 -16
-23 -10 -4 -14 -14 -11 -26 3 -11 2 -19 -2 -18 -25 3 -41 -5 -41 -20 0 -22
-59 -104 -70 -97 -4 3 -10 -1 -13 -9 -3 -7 -17 -13 -31 -13 -21 0 -26 4 -26
23 0 24 -31 64 -50 64 -5 0 -10 9 -10 20 0 11 -7 20 -15 20 -8 0 -15 5 -15 12
0 21 -103 108 -139 118 -58 16 -84 13 -76 -7 27 -63 14 -81 -41 -58 -24 10
-53 13 -83 10 -155 -19 -167 -15 -136 45 8 16 12 36 9 44 -4 10 7 30 30 53 31
32 36 35 36 17 0 -25 35 -60 45 -45 3 6 17 11 30 11 13 0 27 5 30 10 3 6 1 10
-6 10 -19 0 -1 13 23 17 12 2 24 0 27 -5 10 -13 81 -52 97 -52 8 0 14 -4 14
-10 0 -5 18 -10 40 -10 22 0 40 5 40 10 0 6 8 10 19 10 10 0 27 11 37 25 10
14 26 25 34 25 11 0 12 2 3 8 -9 6 -5 13 14 27 14 11 29 19 32 18 12 -3 41 18
36 26 -2 5 5 11 16 14 17 5 19 10 12 29 -13 36 -9 103 7 119 25 24 119 89 130
89 5 0 13 -6 17 -14 4 -7 18 -18 31 -25 13 -7 22 -21 22 -34 0 -43 38 -60 75
-34 17 13 15 17 -31 63 -27 27 -70 68 -96 91 -56 49 -58 60 -32 213 8 52 16
150 16 217 0 146 -17 195 -80 230 -57 32 -262 100 -350 117 -42 8 -84 17 -92
21 -9 3 -49 -16 -96 -47z m181 -79 c36 -12 93 -40 127 -63 l63 -41 -3 -49 c-1
-27 -7 -66 -12 -87 l-10 -37 -101 51 -100 52 -97 0 c-92 -1 -101 -3 -168 -37
-39 -20 -85 -49 -103 -64 -17 -14 -33 -25 -35 -23 -2 2 5 38 16 79 15 58 28
84 56 113 66 68 186 126 264 127 21 0 67 -10 103 -21z m-95 -266 c-1 -32 -15
-54 -31 -50 -12 3 -19 0 -19 -9 0 -8 -10 -14 -25 -14 -22 0 -25 3 -19 26 5 19
4 25 -5 20 -6 -4 -11 -14 -11 -22 0 -8 -9 -14 -20 -14 -15 0 -20 7 -20 30 0
29 0 29 68 33 37 2 70 4 75 5 4 1 7 -1 7 -5z m-380 -707 c0 -15 -18 -31 -26
-23 -7 7 7 37 17 37 5 0 9 -6 9 -14z m488 -288 c20 -20 14 -29 -15 -22 -36 9
-40 13 -23 24 20 13 24 12 38 -2z m-188 -191 c3 0 13 3 23 7 24 11 49 -1 45
-21 -3 -14 -15 -18 -58 -20 -55 -2 -73 8 -63 34 3 9 13 11 27 7 11 -3 23 -6
26 -7z m110 -13 c0 -8 -7 -14 -15 -14 -15 0 -21 21 -9 33 10 9 24 -2 24 -19z
m-180 1 c0 -8 -4 -15 -10 -15 -5 0 -10 7 -10 15 0 8 5 15 10 15 6 0 10 -7 10
-15z m315 -45 c-4 -11 -2 -20 4 -20 19 0 11 -53 -14 -105 -14 -27 -25 -55 -25
-62 0 -18 -58 -26 -91 -13 -35 15 -38 41 -6 55 16 7 22 19 23 44 0 26 10 42
46 77 51 48 73 56 63 24z m-381 -86 c3 -8 9 -13 13 -11 5 3 15 -11 24 -29 16
-33 16 -35 -3 -45 -28 -15 -50 9 -54 60 -3 41 8 56 20 25z m1559 -30 c8 -9
-11 -44 -24 -44 -5 0 -23 -16 -40 -35 -17 -19 -50 -50 -72 -67 -33 -26 -26
-14 38 59 81 93 87 98 98 87z m-913 -345 c-100 -92 -174 -141 -322 -215 -81
-41 -151 -74 -155 -74 -15 1 -63 74 -63 96 0 34 -32 82 -60 90 -38 11 -39 11
-50 13 -13 1 -13 98 -1 106 9 5 27 -32 23 -47 -1 -4 4 -5 12 -2 8 3 20 -4 28
-15 49 -70 141 -90 277 -61 47 10 99 23 114 29 15 6 31 10 35 9 13 -4 52 13
52 23 0 5 7 9 15 9 7 0 18 7 23 16 11 20 93 74 112 74 8 -1 -10 -23 -40 -51z
m244 -250 c-21 -40 -40 -67 -42 -61 -4 12 7 35 45 95 38 61 37 42 -3 -34z
m-84 -6 c26 -34 22 -64 -21 -147 -31 -61 -99 -166 -99 -154 0 38 80 328 91
328 4 0 17 -12 29 -27z m-767 -215 c4 -23 4 -23 14 2 10 22 12 23 18 8 10 -26
-1 -48 -24 -48 -22 0 -41 27 -34 48 7 19 21 14 26 -10z m-652 -155 c-6 -10
-19 -29 -30 -43 -19 -23 -21 -23 -21 -5 0 25 9 38 35 53 27 15 27 15 16 -5z
m1751 -198 c3 -14 1 -25 -3 -25 -5 0 -9 11 -9 25 0 14 2 25 4 25 2 0 6 -11 8
-25z m8 -60 c0 -8 -7 -15 -15 -15 -16 0 -20 12 -8 23 11 12 23 8 23 -8z m-625
-12 c-91 -20 -105 -73 -19 -73 13 0 24 -5 24 -10 0 -7 -14 -9 -37 -5 -61 10
-65 13 -61 42 4 32 38 53 83 52 20 -1 23 -3 10 -6z m625 -61 c0 -27 -3 -51 -6
-55 -3 -3 -7 -33 -9 -66 -4 -67 -9 -81 -31 -81 -10 0 -14 6 -10 18 12 43 21
115 24 195 2 25 7 37 17 37 11 0 15 -12 15 -48z m-617 31 c-7 -2 -19 -2 -25 0
-7 3 -2 5 12 5 14 0 19 -2 13 -5z m-1317 -139 c-8 -21 -15 -32 -15 -23 -1 22
22 86 26 73 2 -5 -3 -28 -11 -50z m1953 4 c-1 -40 -1 -41 -9 -15 -8 26 -4 57
6 57 2 0 4 -19 3 -42z m-43 -145 c-3 -16 -8 -49 -12 -75 -4 -33 -11 -48 -21
-48 -12 0 -14 11 -9 58 3 31 5 65 5 75 1 10 9 17 22 17 17 0 20 -5 15 -27z"/>
<path d="M1855 3381 c-82 -23 -94 -36 -113 -128 l-9 -41 41 15 c25 10 73 16
126 16 82 1 94 -2 203 -48 15 -6 17 -1 17 46 0 48 2 52 15 38 13 -12 14 -24 7
-57 -9 -38 -2 -62 19 -62 8 0 34 110 27 114 -1 1 -20 14 -41 30 -90 66 -213
99 -292 77z m95 -38 c-5 -21 -10 -48 -12 -60 -2 -15 -7 -20 -16 -14 -17 10 4
111 23 111 10 0 11 -9 5 -37z m-40 -4 c0 -6 -9 -13 -21 -16 -15 -4 -19 -12
-17 -32 2 -18 -2 -27 -14 -29 -15 -3 -17 3 -15 35 1 21 7 41 12 45 15 12 55 9
55 -3z m-85 -36 c-3 -21 -11 -42 -17 -48 -7 -7 -9 -1 -6 18 3 15 1 27 -3 27
-5 0 -10 -6 -10 -12 -1 -7 -2 -19 -3 -27 -2 -25 -26 -24 -26 1 0 27 16 50 45
66 28 16 28 16 20 -25z m197 31 c11 -11 -4 -43 -18 -37 -8 3 -14 0 -14 -6 0
-6 7 -11 15 -11 8 0 15 -7 15 -16 0 -11 -5 -14 -16 -10 -9 3 -22 6 -30 6 -16
0 -18 18 -4 54 9 24 38 35 52 20z m48 -37 c0 -35 -11 -67 -21 -61 -10 6 -12
55 -3 78 8 21 24 10 24 -17z m35 4 c8 -14 -6 -91 -16 -85 -12 7 -11 94 0 94 6
0 12 -4 16 -9z"/>
<path d="M1716 3303 c-3 -10 -8 -36 -12 -58 -4 -22 -14 -45 -23 -52 -9 -7 -11
-13 -5 -13 25 0 42 28 48 83 6 56 2 74 -8 40z"/>
<path d="M1647 3260 c-14 -39 -27 -84 -27 -98 0 -27 29 8 36 43 7 38 1 80 -9
55z"/>
<path d="M2581 2803 c-1 -43 3 -73 9 -73 6 0 10 9 10 19 0 11 5 23 10 26 6 4
7 12 3 18 -5 7 -13 28 -19 47 -11 33 -12 31 -13 -37z"/>
<path d="M2663 2562 c-26 -4 -26 -4 -14 -52 5 -19 12 -53 16 -75 l8 -40 13 50
c15 55 18 112 7 117 -5 2 -18 2 -30 0z"/>
<path d="M2526 2503 c-3 -21 -5 -51 -5 -68 1 -20 4 -13 9 20 4 28 11 58 15 68
4 9 3 17 -3 17 -5 0 -12 -17 -16 -37z"/>
<path d="M2600 2515 c-8 -9 -8 -15 -2 -15 12 0 26 19 19 26 -2 2 -10 -2 -17
-11z"/>
<path d="M2556 2445 c-3 -8 6 -31 19 -51 20 -29 22 -40 14 -56 -9 -18 -8 -18
10 -9 26 14 41 42 41 76 0 20 -8 29 -35 41 -42 17 -42 17 -49 -1z"/>
<path d="M2557 2314 c-4 -4 -7 -14 -7 -23 0 -11 3 -12 11 -4 6 6 10 16 7 23
-2 6 -7 8 -11 4z"/>
<path d="M2620 2295 c-7 -8 -8 -15 -2 -15 5 0 15 7 22 15 7 8 8 15 2 15 -5 0
-15 -7 -22 -15z"/>
<path d="M1917 2259 c7 -7 15 -10 18 -7 3 3 -2 9 -12 12 -14 6 -15 5 -6 -5z"/>
<path d="M0 1152 l0 -282 28 -11 c15 -6 43 -25 62 -43 62 -58 67 -59 62 -26
-2 16 -10 35 -18 41 -18 15 -18 28 2 50 14 16 13 23 -15 83 -30 64 -40 129
-22 141 11 6 -3 63 -19 79 -13 13 -13 29 0 21 12 -8 13 9 1 33 -4 9 -15 31
-23 47 -8 17 -18 47 -21 67 -3 21 -13 48 -21 60 -15 21 -16 -1 -16 -260z"/>
<path d="M3854 1249 c26 -6 43 -6 50 1 7 7 -6 10 -39 9 l-50 -1 39 -9z"/>
<path d="M187 879 c7 -7 15 -10 18 -7 3 3 -2 9 -12 12 -14 6 -15 5 -6 -5z"/>
<path d="M181 764 c0 -11 3 -14 6 -6 3 7 2 16 -1 19 -3 4 -6 -2 -5 -13z"/>
<path d="M445 169 c-4 -5 0 -18 9 -28 9 -10 16 -23 16 -29 0 -7 5 -12 10 -12
14 0 12 54 -2 68 -15 15 -25 15 -33 1z"/>
<path d="M405 59 c-4 -5 -4 -21 -1 -35 5 -20 13 -24 41 -24 39 0 43 9 19 45
-17 26 -48 33 -59 14z"/>
</g>
</svg>
